<svg xmlns="http://www.w3.org/2000/svg" width="19.914" height="19.914" viewBox="0 0 19.914 19.914">
  <g id="Group_6821" data-name="Group 6821" transform="translate(-13 -13)">
    <g id="Path_10236" data-name="Path 10236" transform="translate(13 13)" fill="none">
      <path d="M8.5,0A8.5,8.5,0,0,1,17,8.5a6.6,6.6,0,0,1-.763,2.672,21.561,21.561,0,0,1-3.009,4.393A14.089,14.089,0,0,1,8.5,17a8.5,8.5,0,0,1,0-17Z" stroke="none"/>
      <path d="M 8.5 2 C 4.915889739990234 2 2 4.915889739990234 2 8.5 C 2 12.08411026000977 4.915889739990234 15 8.5 15 C 9.349653244018555 15 10.93416023254395 14.42556953430176 11.98822021484375 13.94088459014893 C 12.63528156280518 13.17286396026611 13.83711433410645 11.62294578552246 14.41514015197754 10.34667015075684 L 14.41975975036621 10.33654975891113 C 14.81019973754883 9.487079620361328 15 8.886340141296387 15 8.5 C 15 4.915889739990234 12.08411026000977 2 8.5 2 M 8.5 0 C 13.19441986083984 0 17 3.805580139160156 17 8.5 C 17 9.234379768371582 16.74698066711426 10.0622501373291 16.23699951171875 11.17180061340332 C 15.29916954040527 13.24250030517578 13.22809028625488 15.56472015380859 13.22809028625488 15.56472015380859 C 13.22809028625488 15.56472015380859 10.35898971557617 17 8.5 17 C 3.805580139160156 17 0 13.19441986083984 0 8.5 C 0 3.805580139160156 3.805580139160156 0 8.5 0 Z" stroke="none" fill="#7c7d7e"/>
    </g>
    <line id="Line_3" data-name="Line 3" x2="4" y2="4" transform="translate(27.5 27.5)" fill="none" stroke="#7c7d7e" stroke-linecap="round" stroke-width="2"/>
  </g>
</svg>
