<svg xmlns="http://www.w3.org/2000/svg" width="109.073" height="15.619" viewBox="0 0 109.073 15.619">
  <g id="Star_rating" data-name="Star rating" transform="translate(-22 -384)">
    <path id="star" d="M15.193,6.012a.809.809,0,0,0-.7-.556l-4.4-.4L8.361.988a.81.81,0,0,0-1.49,0L5.134,5.057l-4.4.4a.811.811,0,0,0-.46,1.417L3.6,9.787,2.619,14.1a.81.81,0,0,0,1.2.875l3.792-2.267,3.791,2.267a.81.81,0,0,0,1.205-.875l-.98-4.317,3.324-2.915a.811.811,0,0,0,.236-.861Zm-7.5,6.656" transform="translate(22 384.406)" fill="#ee5a30"/>
    <path id="star-2" data-name="star" d="M15.193,6.012a.809.809,0,0,0-.7-.556l-4.4-.4L8.361.988a.81.81,0,0,0-1.49,0L5.134,5.057l-4.4.4a.811.811,0,0,0-.46,1.417L3.6,9.787,2.619,14.1a.81.81,0,0,0,1.2.875l3.792-2.267,3.791,2.267a.81.81,0,0,0,1.205-.875l-.98-4.317,3.324-2.915a.811.811,0,0,0,.236-.861Zm-7.5,6.656" transform="translate(45.332 384.406)" fill="#ee5a30"/>
    <path id="star-3" data-name="star" d="M15.193,6.012a.809.809,0,0,0-.7-.556l-4.4-.4L8.361.988a.81.81,0,0,0-1.49,0L5.134,5.057l-4.4.4a.811.811,0,0,0-.46,1.417L3.6,9.787,2.619,14.1a.81.81,0,0,0,1.2.875l3.792-2.267,3.791,2.267a.81.81,0,0,0,1.205-.875l-.98-4.317,3.324-2.915a.811.811,0,0,0,.236-.861Zm-7.5,6.656" transform="translate(68.663 384.406)" fill="#ee5a30"/>
    <path id="star-4" data-name="star" d="M15.193,6.012a.809.809,0,0,0-.7-.556l-4.4-.4L8.361.988a.81.81,0,0,0-1.49,0L5.134,5.057l-4.4.4a.811.811,0,0,0-.46,1.417L3.6,9.787,2.619,14.1a.81.81,0,0,0,1.2.875l3.792-2.267,3.791,2.267a.81.81,0,0,0,1.205-.875l-.98-4.317,3.324-2.915a.811.811,0,0,0,.236-.861Zm-7.5,6.656" transform="translate(91.995 384.406)" fill="#ee5a30"/>
    <path id="star-5" data-name="star" d="M15.193,6.012a.809.809,0,0,0-.7-.556l-4.4-.4L8.361.988a.81.81,0,0,0-1.49,0L5.134,5.057l-4.4.4a.811.811,0,0,0-.46,1.417L3.6,9.787,2.619,14.1a.81.81,0,0,0,1.2.875l3.792-2.267,3.791,2.267a.81.81,0,0,0,1.205-.875l-.98-4.317,3.324-2.915a.811.811,0,0,0,.236-.861Zm-7.5,6.656" transform="translate(115.327 384.004)" fill="none" stroke="#ee5a30" stroke-width="1"/>
  </g>
</svg>
