<svg xmlns="http://www.w3.org/2000/svg" width="15.704" height="15.805" viewBox="0 0 15.704 15.805">
  <g id="Group_6814" data-name="Group 6814" transform="translate(5046.159 -481)">
    <path id="Path_2718" data-name="Path 2718" d="M301.772,3.784h-14.16a.772.772,0,0,0-.772.772v.712a.772.772,0,0,0,.772.772h14.16a.773.773,0,0,0,.773-.772V4.557a.773.773,0,0,0-.773-.772Z" transform="translate(-5333 477.216)" fill="#b6b7b7"/>
    <path id="Path_2719" data-name="Path 2719" d="M301.772,18.726h-14.16a.771.771,0,0,0-.772.772v.713a.772.772,0,0,0,.772.772h14.16a.773.773,0,0,0,.773-.772V19.5a.773.773,0,0,0-.773-.772Z" transform="translate(-5333 475.822)" fill="#b6b7b7"/>
    <path id="Path_2720" data-name="Path 2720" d="M303.1,14.518a.773.773,0,0,0-.773-.772h-8.8a.773.773,0,0,0-.773.772v.712a.772.772,0,0,0,.773.772h8.8a.773.773,0,0,0,.773-.772Z" transform="translate(-5333.551 476.286)" fill="#b6b7b7"/>
    <path id="Path_2721" data-name="Path 2721" d="M303.1,9.565a.773.773,0,0,0-.773-.772h-8.8a.773.773,0,0,0-.773.772v.712a.769.769,0,0,0,.059.3.772.772,0,0,0,.714.477h8.8a.773.773,0,0,0,.773-.772Z" transform="translate(-5333.551 476.748)" fill="#b6b7b7"/>
    <path id="Path_2722" data-name="Path 2722" d="M286.97,14.1a.132.132,0,0,0,.05-.01.13.13,0,0,0,.042-.029l2.817-1.626,0-.005a.128.128,0,0,0,.048-.046.141.141,0,0,0,.018-.064.137.137,0,0,0-.022-.07.127.127,0,0,0-.055-.047v0l-2.805-1.62a.131.131,0,0,0-.065-.034.126.126,0,0,0-.073.007.122.122,0,0,0-.057.046.129.129,0,0,0-.024.07h0v3.3a.114.114,0,0,0,.009.049.129.129,0,0,0,.12.079Z" transform="translate(-5333 476.586)" fill="#b6b7b7"/>
  </g>
</svg>
