<svg xmlns="http://www.w3.org/2000/svg" width="13.204" height="17.361" viewBox="0 0 13.204 17.361">
  <g id="man-user" transform="translate(-41.895)">
    <path id="Path_4253" data-name="Path 4253" d="M108.03,8.49c1.93,0,3.5-1.9,3.5-4.245S111.011,0,108.03,0s-3.5,1.9-3.5,4.245S106.1,8.49,108.03,8.49Z" transform="translate(-59.533)" fill="#b6b7b7"/>
    <path id="Path_4254" data-name="Path 4254" d="M41.9,300.445c0-.143,0-.04,0,0Z" transform="translate(0 -285.473)" fill="#b6b7b7"/>
    <path id="Path_4255" data-name="Path 4255" d="M308.085,301.616c0-.039,0-.272,0,0Z" transform="translate(-252.986 -286.532)" fill="#b6b7b7"/>
    <path id="Path_4256" data-name="Path 4256" d="M55.1,183.725c-.065-4.084-.6-5.248-4.68-5.985a2.867,2.867,0,0,1-3.828,0c-4.037.729-4.6,1.875-4.678,5.852-.006.325-.009.342-.01.3,0,.071,0,.2,0,.429,0,0,.972,1.959,6.6,1.959s6.6-1.959,6.6-1.959c0-.146,0-.248,0-.317A2.631,2.631,0,0,1,55.1,183.725Z" transform="translate(-0.012 -168.924)" fill="#b6b7b7"/>
  </g>
</svg>
