<svg xmlns="http://www.w3.org/2000/svg" width="332.983" height="11.372" viewBox="0 0 332.983 11.372">
  <g id="Status_bar" data-name="Status bar" transform="translate(-26.017 -15.833)">
    <g id="time">
      <path id="Path_2707" data-name="Path 2707" d="M29.111,27.2a3.131,3.131,0,0,1-1.975-.63,2.627,2.627,0,0,1-1-1.673H27.64a1.394,1.394,0,0,0,.542.759,1.59,1.59,0,0,0,.941.278,1.63,1.63,0,0,0,1.447-.817,4.212,4.212,0,0,0,.521-2.27h-.1a2.172,2.172,0,0,1-.873.934,2.592,2.592,0,0,1-1.319.331,2.687,2.687,0,0,1-1.995-.8,2.748,2.748,0,0,1-.788-2.015,2.813,2.813,0,0,1,.882-2.136,3.425,3.425,0,0,1,3.9-.407A3.063,3.063,0,0,1,31.941,20a5.393,5.393,0,0,1,.6,2.672,5.4,5.4,0,0,1-.909,3.331A2.982,2.982,0,0,1,29.111,27.2ZM27.968,22.45a1.624,1.624,0,0,0,1.2.466,1.65,1.65,0,0,0,1.2-.463,1.567,1.567,0,0,0,.474-1.172,1.643,1.643,0,0,0-.48-1.2,1.684,1.684,0,0,0-2.391,2.37Z" fill="#4a4b4d"/>
      <path id="Path_2708" data-name="Path 2708" d="M34.255,20.777a.95.95,0,0,1,.27-.7.969.969,0,0,1,.715-.269.97.97,0,1,1,0,1.939.969.969,0,0,1-.715-.269A.943.943,0,0,1,34.255,20.777Zm0,4.418a.943.943,0,0,1,.27-.7.965.965,0,0,1,.715-.269.97.97,0,1,1,0,1.939.966.966,0,0,1-.715-.27A.949.949,0,0,1,34.255,25.195Z" fill="#4a4b4d"/>
      <path id="Path_2709" data-name="Path 2709" d="M42.06,27V25.424H37.929V24.076q1.032-1.9,3.446-5.531h2.132v5.6H44.65v1.278H43.507V27Zm-2.73-2.906v.088h2.753V19.775H42Q40.63,21.8,39.33,24.094Z" fill="#4a4b4d"/>
      <path id="Path_2710" data-name="Path 2710" d="M48.113,27V20.068h-.1l-2.1,1.477V20.092l2.209-1.547h1.506V27Z" fill="#4a4b4d"/>
      <path id="Path_2711" data-name="Path 2711" d="M60.839,27l-.714-2.162H57.013L56.287,27h-1.53l3-8.455h1.7L62.462,27Zm-2.314-6.844-1.16,3.487h2.408l-1.148-3.487Z" fill="#4a4b4d"/>
      <path id="Path_2712" data-name="Path 2712" d="M65.322,27H63.916V18.545h1.769L68.228,24.7h.105l2.543-6.158h1.77V27H71.24V21.053h-.082L68.82,26.672H67.742L65.4,21.053h-.082Z" fill="#4a4b4d"/>
    </g>
    <g id="icons">
      <g id="Group_864" data-name="Group 864">
        <g id="Group_863" data-name="Group 863">
          <path id="Path_2713" data-name="Path 2713" d="M325.253,24.428a.306.306,0,0,0-.009-.444,3.32,3.32,0,0,0-4.288,0,.3.3,0,0,0-.1.219.305.305,0,0,0,.09.225l1.939,1.956a.3.3,0,0,0,.429,0Zm-2.153-2.7a4.77,4.77,0,0,1,3.2,1.232.3.3,0,0,0,.419,0l1.121-1.133a.311.311,0,0,0-.005-.445,6.946,6.946,0,0,0-9.463,0,.309.309,0,0,0-.1.221.312.312,0,0,0,.091.224l1.12,1.133a.3.3,0,0,0,.421,0A4.765,4.765,0,0,1,323.1,21.725Zm0-3.682a8.382,8.382,0,0,1,5.776,2.307.3.3,0,0,0,.421,0l1.121-1.132a.307.307,0,0,0,.091-.222.3.3,0,0,0-.094-.22,10.573,10.573,0,0,0-14.632,0,.308.308,0,0,0-.094.22.313.313,0,0,0,.091.222l1.123,1.132a.3.3,0,0,0,.42,0A8.38,8.38,0,0,1,323.1,18.043Z" fill="#4a4b4d"/>
        </g>
      </g>
      <g id="Group_866" data-name="Group 866">
        <g id="Group_865" data-name="Group 865">
          <path id="Path_2714" data-name="Path 2714" d="M308.87,16.159h.97a.97.97,0,0,1,.971.97v8.409a.969.969,0,0,1-.971.97h-.97a.97.97,0,0,1-.97-.97V17.129A.97.97,0,0,1,308.87,16.159Zm-4.527,2.264h.97a.97.97,0,0,1,.971.97v6.145a.97.97,0,0,1-.971.97h-.97a.968.968,0,0,1-.97-.97V19.393A.969.969,0,0,1,304.343,18.423Zm-4.528,2.264h.971a.971.971,0,0,1,.97.97v3.881a.97.97,0,0,1-.97.97h-.971a.969.969,0,0,1-.97-.97V21.657A.97.97,0,0,1,299.815,20.687Zm-4.529,1.941h.97a.97.97,0,0,1,.97.97v1.94a.969.969,0,0,1-.97.97h-.97a.97.97,0,0,1-.971-.97V23.6A.971.971,0,0,1,295.286,22.628Z" fill="#4a4b4d"/>
        </g>
      </g>
      <g id="Group_869" data-name="Group 869">
        <g id="Group_868" data-name="Group 868">
          <g id="Group_867" data-name="Group 867">
            <path id="Path_2715" data-name="Path 2715" d="M354.154,16.806a1.618,1.618,0,0,1,1.616,1.617v5.822a1.618,1.618,0,0,1-1.616,1.617H337.98a1.618,1.618,0,0,1-1.616-1.617V18.423a1.618,1.618,0,0,1,1.616-1.617h16.174m0-.971H337.98a2.587,2.587,0,0,0-2.586,2.588v5.822a2.587,2.587,0,0,0,2.586,2.588h16.174a2.587,2.587,0,0,0,2.586-2.588V18.423a2.587,2.587,0,0,0-2.586-2.588Z" fill="#4a4b4d"/>
          </g>
          <path id="Path_2716" data-name="Path 2716" d="M357.711,19.393v3.882a2.106,2.106,0,0,0,0-3.882" fill="#4a4b4d"/>
          <path id="Rectangle_179" data-name="Rectangle 179" d="M1.295,0H16.172a1.294,1.294,0,0,1,1.294,1.294V5.822a1.295,1.295,0,0,1-1.295,1.295H1.295A1.295,1.295,0,0,1,0,5.822V1.295A1.295,1.295,0,0,1,1.295,0Z" transform="translate(337.334 17.776)" fill="#4a4b4d"/>
        </g>
      </g>
    </g>
  </g>
</svg>
