<svg xmlns="http://www.w3.org/2000/svg" width="18.548" height="21.584" viewBox="0 0 18.548 21.584">
  <g id="shopping-bag" transform="translate(-36.001)">
    <g id="Group_8094" data-name="Group 8094" transform="translate(36.001)">
      <path id="Path_10159" data-name="Path 10159" d="M53.368,5.889a.169.169,0,0,0-.168-.156H50.165V4.89a4.89,4.89,0,0,0-9.78,0v.843H37.349a.169.169,0,0,0-.168.156L36,21.4a.169.169,0,0,0,.168.181H54.38a.169.169,0,0,0,.168-.181Zm-11.634-1a3.541,3.541,0,1,1,7.082,0v.843H41.734Zm-.674,5.565a1.688,1.688,0,0,1-1.686-1.686,1.592,1.592,0,0,1,1.012-1.545V8.768a.674.674,0,0,0,1.349,0V7.224a1.6,1.6,0,0,1,1.012,1.544A1.688,1.688,0,0,1,41.059,10.455Zm8.431,0A1.688,1.688,0,0,1,47.8,8.768a1.592,1.592,0,0,1,1.012-1.545V8.768a.674.674,0,1,0,1.349,0V7.224a1.6,1.6,0,0,1,1.012,1.544A1.688,1.688,0,0,1,49.49,10.455Z" transform="translate(-36.001)" fill="#4a4b4d"/>
    </g>
  </g>
</svg>
