<svg id="_002-income" data-name="002-income" xmlns="http://www.w3.org/2000/svg" width="29.197" height="29.607" viewBox="0 0 29.197 29.607">
  <path id="Path_10146" data-name="Path 10146" d="M186.073,14.648a7.324,7.324,0,1,0-7.324-7.324A7.332,7.332,0,0,0,186.073,14.648Zm-.867-11.629v-.2a.867.867,0,0,1,1.735,0v.2a2.294,2.294,0,0,1,1.809,2.238.867.867,0,1,1-1.735,0,.556.556,0,0,0-.555-.555h-.778a.555.555,0,0,0-.33,1l.722.534,1.753,1.3a2.3,2.3,0,0,1,.927,1.825V9.37a2.291,2.291,0,0,1-1.813,2.256v.2a.867.867,0,0,1-1.735,0v-.2A2.29,2.29,0,0,1,183.4,9.4a.867.867,0,0,1,.862-.873h.006a.868.868,0,0,1,.867.862.554.554,0,0,0,.558.552l.777,0a.555.555,0,0,0,.552-.559V9.373a.557.557,0,0,0-.225-.442l-.721-.534-1.754-1.3a2.29,2.29,0,0,1,.886-4.08Z" transform="translate(-168.618)" fill="#4a4b4d"/>
  <path id="Path_10147" data-name="Path 10147" d="M9.136,318.805a.808.808,0,0,0-1.1-.3l-4.08,2.355a.809.809,0,0,0-.3,1.1l4.17,7.223a.809.809,0,0,0,1.1.3l4.08-2.356a.808.808,0,0,0,.3-1.1Z" transform="translate(-3.548 -299.989)" fill="#4a4b4d"/>
  <path id="Path_10148" data-name="Path 10148" d="M157.56,273.6a1.215,1.215,0,0,0-1.7-.276l-5.078,3.659a3.055,3.055,0,0,1-.365.268,3.146,3.146,0,0,1-1.682.482h-4.155a.867.867,0,1,1,0-1.735h4.443a1.15,1.15,0,0,0,1.148-1.2A1.168,1.168,0,0,0,149,273.7h-3.382a5.624,5.624,0,0,0-.749-.663,5.548,5.548,0,0,0-3.3-1.085,6.12,6.12,0,0,0-5.295,3.235l3.548,6.145h6.656a7.47,7.47,0,0,0,3.727-.986,14.932,14.932,0,0,0,1.269-.824c1.909-1.372,5.813-4.221,5.816-4.223A1.216,1.216,0,0,0,157.56,273.6Z" transform="translate(-128.593 -256.224)" fill="#4a4b4d"/>
</svg>
