<svg id="_005-info" data-name="005-info" xmlns="http://www.w3.org/2000/svg" width="11.434" height="25.877" viewBox="0 0 11.434 25.877">
  <path id="Path_10157" data-name="Path 10157" d="M42.23,23.085l-.362,1.478q-1.627.642-2.6.978a6.848,6.848,0,0,1-2.252.337,4.5,4.5,0,0,1-3.063-.961,3.109,3.109,0,0,1-1.093-2.441,8.632,8.632,0,0,1,.081-1.174q.083-.6.264-1.356l1.356-4.8q.181-.689.305-1.306a5.677,5.677,0,0,0,.123-1.124,1.739,1.739,0,0,0-.379-1.282,2.143,2.143,0,0,0-1.45-.362,3.8,3.8,0,0,0-1.078.165c-.369.109-.684.214-.949.312L31.5,10.07q1.332-.542,2.549-.928a7.623,7.623,0,0,1,2.3-.387,4.385,4.385,0,0,1,3.017.946,3.138,3.138,0,0,1,1.06,2.456c0,.208-.023.576-.073,1.1a7.364,7.364,0,0,1-.272,1.447l-1.35,4.779a12.694,12.694,0,0,0-.3,1.316,6.776,6.776,0,0,0-.132,1.117,1.609,1.609,0,0,0,.425,1.3,2.4,2.4,0,0,0,1.477.345,4.264,4.264,0,0,0,1.116-.173A6.243,6.243,0,0,0,42.23,23.085Zm.342-20.063a2.8,2.8,0,0,1-.944,2.128,3.215,3.215,0,0,1-2.274.88,3.25,3.25,0,0,1-2.285-.88,2.79,2.79,0,0,1-.953-2.128A2.818,2.818,0,0,1,37.069.887a3.373,3.373,0,0,1,4.559,0A2.823,2.823,0,0,1,42.573,3.022Z" transform="translate(-31.139)" fill="#4a4b4d"/>
</svg>
