<svg xmlns="http://www.w3.org/2000/svg" width="17.727" height="22.367" viewBox="0 0 17.727 22.367">
  <g id="Group_8081" data-name="Group 8081" transform="translate(-28 -286)">
    <g id="_003-bell" data-name="003-bell" transform="translate(28 286)">
      <path id="Path_10149" data-name="Path 10149" d="M184.9,465.044a3.379,3.379,0,0,0,6.185,0Z" transform="translate(-179.133 -444.695)" fill="#4a4b4d"/>
      <path id="Path_10150" data-name="Path 10150" d="M198.872,2.137a7.6,7.6,0,0,1,2.6.455v-.1A2.494,2.494,0,0,0,198.975,0h-.206a2.494,2.494,0,0,0-2.492,2.492v.1A7.615,7.615,0,0,1,198.872,2.137Z" transform="translate(-190.008 0)" fill="#4a4b4d"/>
      <path id="Path_10151" data-name="Path 10151" d="M70.067,94.423H53.687a.668.668,0,0,1-.658-.512.637.637,0,0,1,.351-.725,3.476,3.476,0,0,0,1.058-1.438,16.615,16.615,0,0,0,1.1-6.575,6.337,6.337,0,0,1,12.674-.025c0,.008,0,.017,0,.025a16.615,16.615,0,0,0,1.1,6.575,3.475,3.475,0,0,0,1.058,1.438.637.637,0,0,1,.35.725A.668.668,0,0,1,70.067,94.423Zm.315-1.232h0Z" transform="translate(-53.013 -75.386)" fill="#4a4b4d"/>
    </g>
  </g>
</svg>
