<svg xmlns="http://www.w3.org/2000/svg" width="22.755" height="20" viewBox="0 0 22.755 20">
  <g id="shopping-cart" transform="translate(0 0)">
    <path id="Path_8562" data-name="Path 8562" d="M7.378,13.333H19.422a.665.665,0,0,0,.641-.484L22.73,3.516a.666.666,0,0,0-.641-.85H5.839L5.362.522A.667.667,0,0,0,4.711,0H.667a.667.667,0,0,0,0,1.333H4.176L6.583,12.167A2,2,0,0,0,7.378,16H19.422a.667.667,0,0,0,0-1.333H7.378a.667.667,0,1,1,0-1.333Zm0,0" transform="translate(0)" fill="#4a4b4d"/>
    <path id="Path_8563" data-name="Path 8563" d="M151,362a2,2,0,1,0,2-2A2,2,0,0,0,151,362Zm0,0" transform="translate(-144.289 -344.004)" fill="#4a4b4d"/>
    <path id="Path_8564" data-name="Path 8564" d="M362,362a2,2,0,1,0,2-2A2,2,0,0,0,362,362Zm0,0" transform="translate(-345.915 -344.004)" fill="#4a4b4d"/>
  </g>
</svg>
