<svg xmlns="http://www.w3.org/2000/svg" width="223.5" height="254.28" viewBox="0 0 223.5 254.28">
  <g id="Group_8188" data-name="Group 8188" transform="translate(-76 -208)">
    <g id="Group_8168" data-name="Group 8168" transform="translate(-217.589 104.866)">
      <g id="Group_8155" data-name="Group 8155" transform="translate(298.133 149.338)">
        <g id="Group_8153" data-name="Group 8153" transform="translate(19.183 13.702)">
          <path id="Path_10209" data-name="Path 10209" d="M436.1,259.07s.132-10.646,10.646-10.646c0,0-10.646-.132-10.646-10.646,0,0-.132,10.646-10.646,10.646C425.449,248.423,436.1,248.555,436.1,259.07Z" transform="translate(-268.225 -112.913)" fill="#fc6011"/>
          <path id="Path_10210" data-name="Path 10210" d="M341.1,294.205s.132-10.646,10.646-10.646c0,0-10.646-.13-10.646-10.645,0,0-.13,10.645-10.645,10.645C330.457,283.559,341.1,283.691,341.1,294.205Z" transform="translate(-303.59 -99.832)" fill="#fc6011"/>
          <path id="Path_10211" data-name="Path 10211" d="M388.145,168.081s.132-10.646,10.646-10.646c0,0-10.646-.132-10.646-10.646,0,0-.132,10.646-10.646,10.646C377.5,157.434,388.145,157.566,388.145,168.081Z" transform="translate(-286.077 -146.788)" fill="#fc6011"/>
          <path id="Path_10212" data-name="Path 10212" d="M415.982,280.063s.077-6.251,6.251-6.251c0,0-6.251-.078-6.251-6.252,0,0-.077,6.252-6.252,6.252C409.73,273.812,415.982,273.889,415.982,280.063Z" transform="translate(-274.077 -101.825)" fill="#fc6011"/>
          <path id="Path_10213" data-name="Path 10213" d="M317.13,280.861s.077-6.251,6.252-6.251c0,0-6.252-.078-6.252-6.252,0,0-.077,6.252-6.251,6.252C310.879,274.61,317.13,274.687,317.13,280.861Z" transform="translate(-310.879 -101.528)" fill="#fc6011"/>
        </g>
        <g id="Group_8154" data-name="Group 8154">
          <path id="Path_10214" data-name="Path 10214" d="M450.891,190.084a12.163,12.163,0,1,1,12.164-12.164A12.178,12.178,0,0,1,450.891,190.084Zm0-20.649a8.485,8.485,0,1,0,8.485,8.485A8.5,8.5,0,0,0,450.891,169.435Z" transform="translate(-244.098 -126.024)" fill="#f9ca24"/>
          <path id="Path_10215" data-name="Path 10215" d="M320.479,183.961a23.579,23.579,0,1,1,23.579-23.58A23.606,23.606,0,0,1,320.479,183.961Zm0-43.478a19.9,19.9,0,1,0,19.9,19.9A19.922,19.922,0,0,0,320.479,140.482Z" transform="translate(-296.9 -136.803)" fill="#f9ca24" opacity="0.34"/>
          <path id="Path_10216" data-name="Path 10216" d="M389.608,293.811a23.578,23.578,0,1,1,23.579-23.579A23.606,23.606,0,0,1,389.608,293.811Zm0-43.477a19.9,19.9,0,1,0,19.9,19.9A19.923,19.923,0,0,0,389.608,250.334Z" transform="translate(-271.164 -95.906)" fill="#f9ca24" opacity="0.38"/>
        </g>
      </g>
      <g id="Group_8167" data-name="Group 8167" transform="translate(293.589 103.134)">
        <g id="Group_8157" data-name="Group 8157" transform="translate(184.726 142.162)">
          <g id="Group_8156" data-name="Group 8156">
            <circle id="Ellipse_114" data-name="Ellipse 114" cx="11.577" cy="11.577" r="11.577" transform="matrix(0.115, -0.993, 0.993, 0.115, 0, 23.001)" fill="#fc6011"/>
            <path id="Path_10217" data-name="Path 10217" d="M449.15,211.25a11.577,11.577,0,1,1-16.26-1.909A11.578,11.578,0,0,1,449.15,211.25Z" transform="translate(-428.094 -206.683)" fill="#f9ca24"/>
            <path id="Path_10218" data-name="Path 10218" d="M447.318,211.856a9.843,9.843,0,1,1-13.825-1.625A9.841,9.841,0,0,1,447.318,211.856Z" transform="translate(-427.623 -206.213)" fill="#fc6011" opacity="0.7"/>
            <path id="Path_10219" data-name="Path 10219" d="M441.564,215.143a3.268,3.268,0,0,0-1.548.092,12.673,12.673,0,0,0-1.553.611l-.288.132c-.468.213-.854.379-1.161.5-.042.015-.084.029-.122.044a2.336,2.336,0,0,1-.914.152.931.931,0,0,1-.7-.375,1.2,1.2,0,0,1-.2-1.153,1.993,1.993,0,0,1,.368-.657,4.446,4.446,0,0,1,.73-.7,5.071,5.071,0,0,1,.423-.3,5.7,5.7,0,0,1,.841-.432,5.981,5.981,0,0,1,1.5-.406l-.453-1.559a5.2,5.2,0,0,0-1.676.449,7.682,7.682,0,0,0-1.217.678L434.64,211l-1.2.945.985,1.247a4.85,4.85,0,0,0-.8,1.076,3.177,3.177,0,0,0-.414,1.759,2.788,2.788,0,0,0,.608,1.525,2.383,2.383,0,0,0,1.426.951,3.182,3.182,0,0,0,1.541-.089,13.245,13.245,0,0,0,1.35-.52c.163-.07.336-.148.513-.231q.535-.245.93-.4c.129-.054.247-.1.353-.137a2.268,2.268,0,0,1,.918-.147.954.954,0,0,1,.708.38,1.123,1.123,0,0,1,.159,1.127,2.334,2.334,0,0,1-.526.819,5.413,5.413,0,0,1-.6.55,5.75,5.75,0,0,1-.586.4,5.88,5.88,0,0,1-1.08.5,5.253,5.253,0,0,1-1.746.324l.408,1.6a4.88,4.88,0,0,0,1.96-.388,7.766,7.766,0,0,0,1.463-.762l.963,1.22,1.2-.945-.97-1.228a4.989,4.989,0,0,0,.951-1.228,3.186,3.186,0,0,0,.424-1.758,2.747,2.747,0,0,0-.6-1.518A2.328,2.328,0,0,0,441.564,215.143Z" transform="translate(-426.336 -205.136)" fill="#f9ca24"/>
          </g>
        </g>
        <g id="Group_8159" data-name="Group 8159" transform="translate(20.808 187.605)">
          <g id="Group_8158" data-name="Group 8158">
            <path id="Path_10220" data-name="Path 10220" d="M332.765,257.516a11.577,11.577,0,1,1-7.6-14.5A11.577,11.577,0,0,1,332.765,257.516Z" transform="translate(-308.238 -238.858)" fill="#fc6011"/>
            <circle id="Ellipse_115" data-name="Ellipse 115" cx="11.577" cy="11.577" r="11.577" transform="matrix(0.974, -0.225, 0.225, 0.974, 0, 5.219)" fill="#f9ca24"/>
            <circle id="Ellipse_116" data-name="Ellipse 116" cx="9.843" cy="9.843" r="9.843" transform="translate(2.109 21.306) rotate(-77.201)" fill="#fc6011" opacity="0.7"/>
            <path id="Path_10221" data-name="Path 10221" d="M323.555,253.516a3.283,3.283,0,0,0-.951-1.225,12.729,12.729,0,0,0-1.38-.937c-.088-.054-.178-.108-.272-.163-.439-.266-.795-.491-1.064-.679l-.1-.075a2.318,2.318,0,0,1-.642-.668.933.933,0,0,1-.089-.793,1.2,1.2,0,0,1,.84-.814,2,2,0,0,1,.751-.067,4.486,4.486,0,0,1,.991.206,5.093,5.093,0,0,1,.487.181,5.788,5.788,0,0,1,.832.449,6.008,6.008,0,0,1,1.183,1.009l1.031-1.254a5.245,5.245,0,0,0-1.316-1.128,7.766,7.766,0,0,0-1.246-.623l.458-1.467-1.457-.456-.473,1.518a4.8,4.8,0,0,0-1.338-.051,3.169,3.169,0,0,0-1.685.652,2.776,2.776,0,0,0-.915,1.36,2.388,2.388,0,0,0,.018,1.715,3.185,3.185,0,0,0,.945,1.221,12.831,12.831,0,0,0,1.191.821c.151.1.311.195.48.3q.5.3.856.541c.117.075.221.147.313.213a2.292,2.292,0,0,1,.639.675.96.96,0,0,1,.086.8,1.134,1.134,0,0,1-.84.767,2.349,2.349,0,0,1-.973.029,5.5,5.5,0,0,1-.8-.189,5.565,5.565,0,0,1-.664-.255,5.926,5.926,0,0,1-1.025-.608,5.271,5.271,0,0,1-1.252-1.258l-1.088,1.238a4.9,4.9,0,0,0,1.427,1.4,7.914,7.914,0,0,0,1.455.778l-.464,1.483,1.457.454.465-1.493a5.036,5.036,0,0,0,1.552.092,3.18,3.18,0,0,0,1.691-.644,2.73,2.73,0,0,0,.913-1.353A2.337,2.337,0,0,0,323.555,253.516Z" transform="translate(-306.395 -237.919)" fill="#f9ca24"/>
          </g>
        </g>
        <g id="Group_8162" data-name="Group 8162" transform="translate(64.903 92.438)">
          <path id="Path_10222" data-name="Path 10222" d="M419.735,193.954v11.681h-73a5.847,5.847,0,0,1-5.851-5.829,2.6,2.6,0,0,1,.022-.412,5.839,5.839,0,0,1,5.83-5.44Z" transform="translate(-340.884 -161.76)" fill="#171723"/>
          <path id="Path_10233" data-name="Path 10233" d="M0,0H76.852V20.3H0Z" transform="translate(6.727 36.14)" fill="#b6b7b7"/>
          <path id="Path_10224" data-name="Path 10224" d="M351.844,204.665s3.152-8.106-6.4-8.106v15.759h6.119Z" transform="translate(-339.185 -160.79)" fill="#fff" opacity="0.43"/>
          <g id="Group_8161" data-name="Group 8161" transform="translate(46.399)">
            <path id="Path_10223" data-name="Path 10223" d="M394.463,170.6l37.783,6.185c3.91.641,6.6,4.043,6.02,7.6L426.7,255.04c-.582,3.554-4.218,5.92-8.128,5.279l-37.783-6.186c-3.9-.638-6.594-4.04-6.012-7.594l11.57-70.659C386.926,172.325,390.563,169.959,394.463,170.6Z" transform="translate(-374.695 -170.494)" fill="#f9ca24"/>
            <rect id="Rectangle_17344" data-name="Rectangle 17344" width="84.648" height="6.684" transform="translate(6.266 83.668) rotate(-80.701)" fill="#f0932b"/>
            <g id="Group_8160" data-name="Group 8160" transform="translate(16.191 6.068)">
              <rect id="Rectangle_17345" data-name="Rectangle 17345" width="8.875" height="2.175" transform="translate(0 74.677) rotate(-80.702)" fill="#fff"/>
              <rect id="Rectangle_17346" data-name="Rectangle 17346" width="8.875" height="2.175" transform="translate(2.158 61.493) rotate(-80.702)" fill="#fff"/>
              <rect id="Rectangle_17347" data-name="Rectangle 17347" width="8.875" height="2.175" transform="translate(4.317 48.309) rotate(-80.702)" fill="#fff"/>
              <rect id="Rectangle_17348" data-name="Rectangle 17348" width="8.875" height="2.175" transform="translate(6.475 35.126) rotate(-80.702)" fill="#fff"/>
              <rect id="Rectangle_17349" data-name="Rectangle 17349" width="8.875" height="2.175" transform="translate(8.634 21.942) rotate(-80.702)" fill="#fff"/>
              <rect id="Rectangle_17350" data-name="Rectangle 17350" width="8.875" height="2.175" transform="matrix(0.162, -0.987, 0.987, 0.162, 10.792, 8.759)" fill="#fff"/>
            </g>
            <rect id="Rectangle_17351" data-name="Rectangle 17351" width="16.484" height="11.187" transform="translate(41.967 26.32) rotate(-80.702)" fill="#f6e58d"/>
          </g>
          <rect id="Rectangle_17352" data-name="Rectangle 17352" width="82.66" height="20.302" transform="translate(6.62 39.941)" fill="#e7e7e7"/>
          <path id="Path_10225" data-name="Path 10225" d="M435.732,204.048v72.866h-89a5.847,5.847,0,0,1-5.851-5.829V198.218a5.847,5.847,0,0,0,5.851,5.829Z" transform="translate(-340.884 -160.172)" fill="#3c4382"/>
          <path id="Path_10226" data-name="Path 10226" d="M435.732,204.048v72.866h-89a5.847,5.847,0,0,1-5.851-5.829V198.218a5.847,5.847,0,0,0,5.851,5.829Z" transform="translate(-340.884 -160.172)" fill="#29293d"/>
        </g>
        <g id="Group_8163" data-name="Group 8163" transform="translate(119.927)">
          <rect id="Rectangle_17353" data-name="Rectangle 17353" width="46.933" height="82.302" transform="translate(0 33.221) rotate(-45.059)" fill="#fc6011"/>
          <path id="Path_10227" data-name="Path 10227" d="M464.93,162.122l-24.852,24.9a6.317,6.317,0,0,0-4.876.005l-49.939-49.836a6.317,6.317,0,0,0-.005-4.876l24.852-24.9a6.317,6.317,0,0,0,4.876,0l49.939,49.836A6.317,6.317,0,0,0,464.93,162.122Z" transform="translate(-379.389 -101.542)" fill="#f6e58d"/>
          <circle id="Ellipse_117" data-name="Ellipse 117" cx="17.957" cy="17.957" r="17.957" transform="translate(27.747 27.721)" fill="#fc6011"/>
          <path id="Path_10228" data-name="Path 10228" d="M420.806,144.391a5.78,5.78,0,0,0-.475-2.7,22.821,22.821,0,0,0-1.382-2.606c-.093-.156-.191-.317-.291-.479-.467-.778-.836-1.423-1.1-1.94-.036-.071-.069-.14-.1-.2a4.092,4.092,0,0,1-.451-1.574,1.645,1.645,0,0,1,.516-1.312A2.119,2.119,0,0,1,419.5,133a3.538,3.538,0,0,1,1.23.513,7.983,7.983,0,0,1,1.378,1.142,8.877,8.877,0,0,1,.612.683,10.157,10.157,0,0,1,.929,1.389,10.558,10.558,0,0,1,1.014,2.552l2.647-1.109a9.268,9.268,0,0,0-1.125-2.85,13.57,13.57,0,0,0-1.434-2l1.929-1.917-1.9-1.913-1.994,1.982a8.51,8.51,0,0,0-2.05-1.184,5.621,5.621,0,0,0-3.171-.375,4.944,4.944,0,0,0-2.555,1.371,4.234,4.234,0,0,0-1.386,2.7,5.645,5.645,0,0,0,.468,2.69,22.845,22.845,0,0,0,1.184,2.267c.156.274.327.561.509.856q.537.889.892,1.553c.119.214.222.412.312.59a4.053,4.053,0,0,1,.442,1.584,1.684,1.684,0,0,1-.524,1.32,2,2,0,0,1-1.947.506,4.163,4.163,0,0,1-1.544-.76,9.425,9.425,0,0,1-1.087-.951,9.754,9.754,0,0,1-.828-.948,10.42,10.42,0,0,1-1.1-1.795,9.339,9.339,0,0,1-.918-3l-2.72,1.035a8.62,8.62,0,0,0,1.074,3.364,13.784,13.784,0,0,0,1.63,2.418l-1.949,1.936,1.9,1.913,1.962-1.95a8.879,8.879,0,0,0,2.348,1.424,5.633,5.633,0,0,0,3.174.391,4.836,4.836,0,0,0,2.543-1.361A4.122,4.122,0,0,0,420.806,144.391Z" transform="translate(-371.382 -93.323)" fill="#f6e58d"/>
        </g>
        <g id="Group_8164" data-name="Group 8164" transform="translate(0 81.806)">
          <rect id="Rectangle_17354" data-name="Rectangle 17354" width="78.137" height="44.558" transform="translate(0 69.99) rotate(-63.603)" fill="#fc6011"/>
          <path id="Path_10229" data-name="Path 10229" d="M331.067,166.058l29.92,14.85a5.989,5.989,0,0,0,1.477,4.387l-29.78,60a6,6,0,0,0-4.387,1.477l-29.92-14.851a6,6,0,0,0-1.477-4.386l29.78-60A5.994,5.994,0,0,0,331.067,166.058Z" transform="translate(-292.356 -161.513)" fill="#f6e58d"/>
          <circle id="Ellipse_118" data-name="Ellipse 118" cx="17.048" cy="17.048" r="17.048" transform="translate(20.277 27.852)" fill="#fc6011"/>
          <path id="Path_10230" data-name="Path 10230" d="M327.469,192.92a5.489,5.489,0,0,0-2.288,1.242,21.36,21.36,0,0,0-1.927,2.031c-.113.13-.228.268-.344.406-.56.655-1.028,1.182-1.413,1.577-.054.053-.106.1-.154.154a3.881,3.881,0,0,1-1.28.882,1.558,1.558,0,0,1-1.337-.069,2.009,2.009,0,0,1-1.12-1.612,3.345,3.345,0,0,1,.091-1.261,7.643,7.643,0,0,1,.611-1.585q.193-.383.431-.756a9.657,9.657,0,0,1,.97-1.256,10.094,10.094,0,0,1,1.991-1.685l-1.8-2.047a8.813,8.813,0,0,0-2.226,1.875,12.931,12.931,0,0,0-1.368,1.894L314,191.551l-1.149,2.289,2.385,1.2a7.986,7.986,0,0,0-.446,2.2,5.33,5.33,0,0,0,.62,2.968,4.677,4.677,0,0,0,2,1.884,4.009,4.009,0,0,0,2.845.434,5.35,5.35,0,0,0,2.279-1.232,22,22,0,0,0,1.682-1.75c.2-.225.408-.465.617-.716.425-.5.8-.925,1.129-1.272.156-.173.3-.327.436-.46a3.85,3.85,0,0,1,1.293-.876,1.6,1.6,0,0,1,1.346.073,1.9,1.9,0,0,1,1.043,1.6,3.947,3.947,0,0,1-.217,1.619,9.048,9.048,0,0,1-.528,1.265,9.364,9.364,0,0,1-.6,1.031,9.835,9.835,0,0,1-1.283,1.533,8.875,8.875,0,0,1-2.423,1.733l1.754,2.135a8.193,8.193,0,0,0,2.7-1.983,13.141,13.141,0,0,0,1.684-2.2L333.5,204.2l1.147-2.289-2.347-1.177a8.411,8.411,0,0,0,.574-2.543,5.341,5.341,0,0,0-.608-2.975,4.593,4.593,0,0,0-1.991-1.879A3.915,3.915,0,0,0,327.469,192.92Z" transform="translate(-286.417 -152.995)" fill="#f6e58d"/>
        </g>
        <g id="Group_8166" data-name="Group 8166" transform="translate(35.404 6.103)">
          <path id="Path_10231" data-name="Path 10231" d="M391.838,143.805a36.225,36.225,0,1,0-36.224,36.226q.967,0,1.923-.052l14.685,15.378V176A36.215,36.215,0,0,0,391.838,143.805Z" transform="translate(-319.388 -107.581)" fill="#fc6011"/>
          <g id="Group_8165" data-name="Group 8165" transform="translate(10.211 17.487)">
            <path id="Path_10232" data-name="Path 10232" d="M378.858,127.088,348.146,157.8l-21.317-21.317,6.764-6.764,14.553,14.553,23.948-23.948Z" transform="translate(-326.829 -120.324)" fill="#fff"/>
          </g>
        </g>
      </g>
    </g>
  </g>
</svg>
