<svg xmlns="http://www.w3.org/2000/svg" width="36" height="36" viewBox="0 0 36 36">
  <g id="Group_8187" data-name="Group 8187" transform="translate(-22 -742)">
    <circle id="Ellipse_77" data-name="Ellipse 77" cx="18" cy="18" r="18" transform="translate(22 742)" fill="#ee5a30" opacity="0.2"/>
    <path id="Path_8572" data-name="Path 8572" d="M39.441,28.1a.874.874,0,0,1-.428-.111l-4.744-2.684L29.524,27.99a.872.872,0,0,1-.5.113.888.888,0,0,1-.481-.191,1,1,0,0,1-.314-.437,1.08,1.08,0,0,1-.053-.55l.93-5.659-3.833-4.02a1.028,1.028,0,0,1-.245-.468,1.082,1.082,0,0,1,.013-.537,1.012,1.012,0,0,1,.286-.458.9.9,0,0,1,.467-.225l5.3-.834,2.335-5.156a.983.983,0,0,1,.343-.414.872.872,0,0,1,.988,0,.983.983,0,0,1,.343.414l2.363,5.146,5.3.834a.9.9,0,0,1,.467.225,1.013,1.013,0,0,1,.286.458,1.083,1.083,0,0,1,.013.537,1.028,1.028,0,0,1-.245.468l-3.833,4.02.93,5.659a1.08,1.08,0,0,1-.05.561,1,1,0,0,1-.322.444A.881.881,0,0,1,39.441,28.1Z" transform="translate(6 741)" fill="#fc6011"/>
  </g>
</svg>
